<svg width="132" height="24" viewBox="0 0 132 24" fill="none" xmlns="http://www.w3.org/2000/svg">
  <path d="M1.342 3.552S0 3.79 0 4.896v8.062c0 4.309 6.472 9.105 8.669 10.534a1.32 1.32 0 0 0 1.443 0c2.202-1.424 8.67-6.22 8.67-10.534V4.896c0-1.106-1.342-1.344-1.342-1.344l-7.253-2.234a2.7 2.7 0 0 0-1.593 0L1.342 3.552Z" fill="#E7EFFD"/>
  <path d="m2.972 2.61.07-.016L10.294.36a2.06 2.06 0 0 1 1.25 0l7.254 2.234.069.016c.29.053.871.27.871.778v8.062c0 3.749-5.488 8.513-8.407 10.052a.76.76 0 0 1-.807 0C7.6 19.61 2.117 15.193 2.117 11.444V3.388c0-.509.576-.725.855-.778Z" stroke="#0046C7" stroke-width=".5"/>
  <path d="M6.264 8.3h-.54l.54 1.26-.476 1.09L4.773 8.3h-.54l1.39 3.24h.336l.577-1.334.578 1.334h.336L8.84 8.3H8.3l-1.015 2.372L6.27 8.3h-.006ZM11.406 8.3l-.93 1.63-.93-1.63h-.578l1.272 2.207v1.017h.492v-1.017L11.983 8.3h-.577ZM15.013 11.54h2.571v-.556h-2.57v.556ZM15.013 8.856h2.571V8.3h-2.57v.556ZM15.013 10.19h2.571v-.556h-2.57v.556ZM12.132 8.3v.54h1.695l-1.898 2.704h2.758v-.534h-1.742l1.913-2.705h-2.726V8.3Z" fill="#0046C7"/>
  <text x="23" y="16" fill="#000" font-family="Arial, sans-serif" font-size="15" font-weight="700">Cam</text>
  <text x="59" y="16" fill="#4E2FD2" font-family="Arial, sans-serif" font-size="15" font-weight="700">Unlimited</text>
</svg>
